<?xml version="1.0" encoding="UTF-8" standalone="no"?>
<!-- Created with Inkscape (http://www.inkscape.org/) -->

<svg
   width="27.774006mm"
   height="32.393822mm"
   viewBox="0 0 27.774005 32.393822"
   version="1.1"
   id="svg1"
   inkscape:version="1.3 (0e150ed6c4, 2023-07-21)"
   sodipodi:docname="pearl771_shape.svg"
   xml:space="preserve"
   xmlns:inkscape="http://www.inkscape.org/namespaces/inkscape"
   xmlns:sodipodi="http://sodipodi.sourceforge.net/DTD/sodipodi-0.dtd"
   xmlns:xlink="http://www.w3.org/1999/xlink"
   xmlns="http://www.w3.org/2000/svg"
   xmlns:svg="http://www.w3.org/2000/svg"><sodipodi:namedview
     id="namedview1"
     pagecolor="#ffffff"
     bordercolor="#000000"
     borderopacity="0.25"
     inkscape:showpageshadow="2"
     inkscape:pageopacity="0.0"
     inkscape:pagecheckerboard="0"
     inkscape:deskcolor="#d1d1d1"
     inkscape:document-units="mm"
     inkscape:zoom="2"
     inkscape:cx="207"
     inkscape:cy="113"
     inkscape:window-width="1920"
     inkscape:window-height="1051"
     inkscape:window-x="-9"
     inkscape:window-y="-9"
     inkscape:window-maximized="1"
     inkscape:current-layer="g38"
     inkscape:clip-to-page="false" /><defs
     id="defs1"><linearGradient
       id="linearGradient35"
       inkscape:collect="always"><stop
         style="stop-color:#b49354;stop-opacity:0;"
         offset="0"
         id="stop37" /><stop
         style="stop-color:#b49354;stop-opacity:1;"
         offset="0.57613164"
         id="stop36" /></linearGradient><radialGradient
       inkscape:collect="always"
       xlink:href="#linearGradient35"
       id="radialGradient37"
       cx="105.82082"
       cy="164.35005"
       fx="105.82082"
       fy="164.35005"
       r="34.171104"
       gradientTransform="matrix(1,0,0,0.13359153,0,142.39427)"
       gradientUnits="userSpaceOnUse"
       spreadMethod="pad" /></defs><g
     inkscape:label="Layer 1"
     inkscape:groupmode="layer"
     id="layer1"
     transform="translate(-35.951033,-148.08234)"><g
       id="g38"><path
         d="m 35.951033,156.38159 0.09508,15.9768 13.836882,8.11777 13.832743,-8.11796 0.0093,-16.03365 -14.067867,-8.24221 z m 23.52157,2.32699 0.220152,5.63959 v 5.5671 l -9.846964,5.52622 -9.800436,-5.52622 v -5.5671 -5.66904 l 9.567901,-6.32481 z m -16.842387,1.44074 -0.07132,8.41866 c 7.2869,4.20049 0.07132,0.0893 7.2869,4.20049 l 7.214547,-4.20049 v -8.24395 l -7.447087,-4.45864 z m 6.98304,0 3.272669,2.3642 v 3.97909 l -3.040129,2.07537 -3.125902,-2.07537 v -3.97909 z"
         style="fill:#d4af37;fill-opacity:1"
         id="path1"
         sodipodi:nodetypes="cccccccccccccccccccccccccccccc" /><g
         id="g29"
         style="fill:url(#radialGradient37);fill-opacity:1;stroke:none;stroke-width:1;stroke-dasharray:none"><g
           id="g37"
           style="fill:#1a1a1a;fill-opacity:1"><path
             style="fill:#1a1a1a;fill-opacity:1;stroke:none;stroke-width:1;stroke-dasharray:none"
             d="m 115.1878,166.64223 v 1.20045 1.04922 h 2.25103 2.25154 v -1.16601 -1.08366 h -2.20193 z"
             id="path23"
             sodipodi:nodetypes="ccccccccc" /><path
             id="path22"
             style="fill:#1a1a1a;fill-opacity:1;stroke:none;stroke-width:1;stroke-dasharray:none"
             d="m 81.901978,159.86311 c 0.01818,2.50415 -0.01459,5.00782 -0.04496,7.51169 l 0.7953,0.75757 0.795301,0.75758 c 0.27781,0.002 0.627021,0.002 0.922424,0.002 0,-2.9938 -0.0045,-6.07489 0,-9.02891 z m 2.704744,0 v 2.19263 h 2.384351 2.459798 v -0.94413 -1.2485 z m 0,3.4277 v 1.2237 0.96686 h 2.566252 2.277897 v -1.1715 -1.01906 h -2.3797 z m -0.07545,3.41581 v 0.9772 1.2082 h 2.600358 2.319239 v -1.04335 -1.14205 h -2.422075 z"
             sodipodi:nodetypes="cccccccccccccccccccccccccccccccc" /><path
             style="fill:#1a1a1a;fill-opacity:1;stroke:none;stroke-width:1;stroke-dasharray:none"
             d="m 131.293,159.78508 c -0.66663,1.05758 0,0 -0.66663,1.05758 v 1.27175 h 0.66663 v 2.41794 2.41794 h -0.30408 -0.36255 v 1.94173 c 1.94108,0.023 0,0 2.05151,0.023 h 1.8004 v -1.0056 -0.95912 h -0.35963 l -0.36497,-5e-5 0.0409,-3.50154 v -3.66363 h -1.1167 z"
             id="path9"
             sodipodi:nodetypes="ccccccccccccccccccc" /><path
             id="path8"
             style="fill:#1a1a1a;fill-opacity:1;stroke:none;stroke-width:1;stroke-dasharray:none"
             d="m 93.081657,159.78585 -0.63562,0.73122 -0.625285,0.77102 v 3.60804 3.91863 h 1.302246 0.977202 v -4.3341 -3.05873 -1.63608 z m 1.423169,0 v 1.63608 h 2.81895 v 3.05873 h -2.81895 v 1.74924 h 1.23455 1.501201 v 1.30432 1.28054 h 1.142566 1.237133 v -3.83543 -3.69124 l -0.659391,-0.73433 -0.663009,-0.76791 h -2.5585 z" /><path
             id="path7"
             style="fill:#1a1a1a;fill-opacity:1;stroke:none;stroke-width:1;stroke-dasharray:none"
             d="m 112.51303,159.78508 v 3.82819 3.75894 c 0.84161,0.98616 0.46703,0.59808 1.29914,1.51929 h 0.67645 0.49713 v -9.10125 h -1.17358 z" /><path
             id="path4"
             style="fill:#1a1a1a;fill-opacity:1;stroke:none;stroke-width:1;stroke-dasharray:none"
             d="m 121.10845,159.78508 v 1.17719 1.07642 h 2.74763 1.79834 l 1.57355,-2.25361 h -1.85519 z m 6.61303,0 -1.57407,2.25361 h 0.005 c -2.02248,2.8309 -2.01319,2.85499 -3.18689,4.60333 h -0.52297 v 0.97049 1.27939 l 1.41387,1.2e-4 h 0.60151 l 4.50671,-6.85333 v -1.00976 -1.24385 z"
             sodipodi:nodetypes="ccccccccccccccccccccc" /><path
             id="path3"
             style="fill:#1a1a1a;fill-opacity:1;stroke:none;stroke-width:1;stroke-dasharray:none"
             d="m 101.91264,159.7856 v 4.58214 4.44676 h 1.04593 1.25264 v -9.00927 c -0.78758,3.1e-4 -1.60827,-0.002 -2.29857,-0.0196 z m 2.7032,0.0191 v 2.07636 h 2.79983 v 1.72134 h -2.79983 v 2.16834 h 0.93379 0.92604 l 0.56172,1.54306 0.62839,1.48621 1.12551,5.2e-4 1.12603,5.2e-4 v -0.66973 -0.66973 c -0.709,-1.04404 -0.709,-1.07909 -1.22318,-1.84175 l 0.61185,-0.6258 0.61133,-0.62632 v -1.61282 -1.61282 l -0.709,-0.66869 -0.70848,-0.66869 h -3.12229 c -0.22192,0 -0.50706,-3.2e-4 -0.76171,0 z" /><g
             id="g27"
             transform="translate(14.573512,50.148024)"
             style="fill:#1a1a1a;fill-opacity:1;stroke:none;stroke-width:1;stroke-dasharray:none"><rect
               style="opacity:1;fill:#1a1a1a;fill-opacity:1;stroke:none;stroke-width:1;stroke-dasharray:none"
               id="rect23"
               width="2.2826276"
               height="8.5858479"
               x="57.076202"
               y="109.8383"
               ry="0" /><path
               id="path26"
               style="opacity:1;fill:#1a1a1a;fill-opacity:1;stroke:none;stroke-width:1;stroke-dasharray:none"
               d="m 59.853195,109.8383 v 1.96155 h 2.312791 v 2.214 h -2.312791 v 1.96154 h 2.709666 l 1.697191,-1.69719 v -2.74271 l -1.697191,-1.69719 z"
               sodipodi:nodetypes="ccccccccccc" /></g><path
             style="fill:#1a1a1a;fill-opacity:1;stroke:none;stroke-width:1;stroke-dasharray:none"
             d="m 136.80664,159.78508 c -0.66663,1.05758 0,0 -0.66663,1.05758 v 1.27175 h 0.66663 v 2.41794 2.41794 h -0.30408 -0.36255 v 1.94173 c 1.94108,0.023 0,0 2.05151,0.023 h 1.8004 v -1.0056 -0.95912 h -0.35963 l -0.36497,-5e-5 0.0409,-3.50154 v -3.66363 h -1.1167 z"
             id="path29"
             sodipodi:nodetypes="ccccccccccccccccccc" /></g></g></g></g></svg>
